<?xml version="1.0" encoding="UTF-8"?>
<svg id="katman_1" data-name="katman 1" xmlns="http://www.w3.org/2000/svg" version="1.1" viewBox="0 0 1868.9 1682.6">
  <defs>
    <style>
      .cls-1 {
        fill: #000;
        stroke-width: 0px;
      }
    </style>
  </defs>
  <path class="cls-1" d="M864.6,773.6h29.8c9.3,0,16.9-7.6,16.9-16.9h0v-67.7c0-9.3-7.6-16.9-16.9-16.9h-33.8c-9.3,0-16.9,7.6-16.9,16.9h0v57.2l-33.8,16.9v-310.9c0-9.3-7.6-16.9-16.9-16.9-2.6,0-5.2.6-7.5,1.8l-67.6,33.8c-5.7,2.9-9.3,8.7-9.3,15.1v43.7l-21.9-21.9c-3.2-3.2-7.5-5-12-5h-270.6c-4.5,0-8.8,1.8-12,5l-21.9,21.9v-43.7c0-6.4-3.6-12.3-9.3-15.1l-67.6-33.8c-8.4-4.2-18.5-.8-22.7,7.6-1.2,2.3-1.8,4.9-1.8,7.5v310.9l-33.8-16.9v-57.2c0-9.3-7.6-16.9-16.9-16.9h-33.8c-9.3,0-16.9,7.6-16.9,16.9,0,0,0,0,0,0v67.6c0,9.3,7.6,16.9,16.9,16.9h29.8l54.7,27.4v107.9c-37.3,0-67.6,30.3-67.6,67.6v101.5h-16.9c-9.3,0-16.9,7.6-16.9,16.9,0,0,0,0,0,0v67.6c0,9.3,7.6,16.9,16.9,16.9h50.8v50.7c0,9.3,7.6,16.9,16.9,16.9h101.5c9.3,0,16.9-7.6,16.9-16.9h0v-50.8h338.2v50.7c0,9.3,7.6,16.9,16.9,16.9h101.5c9.3,0,16.9-7.6,16.9-16.9h0v-50.8h50.7c9.3,0,16.9-7.6,16.9-16.9h0v-67.7c0-9.3-7.6-16.9-16.9-16.9h-16.9v-101.5c0-37.3-30.3-67.6-67.6-67.6v-107.9l54.7-27.4ZM336.3,655.3c0-9.3,7.6-16.9,16.9-16.9h169.1v169.1h-169.1c-9.3,0-16.9-7.6-16.9-16.9h0v-135.3ZM370.1,1027.3c0,9.3-7.6,16.9-16.9,16.9h-67.7c-9.3,0-16.9-7.6-16.9-16.9h0v-33.8c0-9.3,7.6-16.9,16.9-16.9h67.7c9.3,0,16.9,7.6,16.9,16.9h0v33.8ZM674.5,1095c0,9.3-7.6,16.9-16.9,16.9h-236.8c-9.3,0-16.9-7.6-16.9-16.9h0v-203c0-9.3,7.6-16.9,16.9-16.9h236.8c9.3,0,16.9,7.6,16.9,16.9h0v203ZM556.2,807.5v-169.1h169.1c9.3,0,16.9,7.6,16.9,16.9h0v135.3c0,9.3-7.6,16.9-16.9,16.9h-169.1ZM809.8,1027.3c0,9.3-7.6,16.9-16.9,16.9h-67.7c-9.3,0-16.9-7.6-16.9-16.9h0v-33.8c0-9.3,7.6-16.9,16.9-16.9h67.7c9.3,0,16.9,7.6,16.9,16.9h0v33.8Z"/>
</svg>