<?xml version="1.0" encoding="UTF-8"?>
<svg id="katman_1" data-name="katman 1" xmlns="http://www.w3.org/2000/svg" version="1.1" viewBox="0 0 1868.9 1682.6">
  <defs>
    <style>
      .cls-1 {
        fill: #000;
      }

      .cls-1, .cls-2 {
        stroke-width: 0px;
      }

      .cls-3 {
        fill: none;
        stroke: #fff;
        stroke-miterlimit: 10;
        stroke-width: 5px;
      }

      .cls-2 {
        fill: #fff;
      }
    </style>
  </defs>
  <path class="cls-1" d="M559.5,294.8h795.7c8.3,0,15.1,6.8,15.1,15.1v964h-825.9V309.8c0-8.3,6.8-15.1,15.1-15.1Z"/>
  <rect class="cls-1" x="612.7" y="1247.6" width="188.7" height="102.1" rx="23.4" ry="23.4"/>
  <rect class="cls-1" x="1094.8" y="1247.6" width="188.7" height="102.1" rx="23.4" ry="23.4"/>
  <rect class="cls-2" x="625.9" y="1072.8" width="131.1" height="78.7" rx="5.8" ry="5.8"/>
  <rect class="cls-2" x="1168" y="1072.8" width="131.1" height="78.7" rx="5.8" ry="5.8"/>
  <rect class="cls-2" x="785.5" y="326.1" width="343.6" height="19.1" rx="2.5" ry="2.5"/>
  <path class="cls-1" d="M1272.8,248.5h97.5v92.5h-111.4v-78.6c0-7.7,6.3-14,14-14Z"/>
  <path class="cls-1" d="M544.4,248.5h111.4v92.5h-97.5c-7.7,0-14-6.3-14-14v-78.6h0Z" transform="translate(1200.2 589.5) rotate(-180)"/>
  <circle class="cls-1" cx="988.6" cy="768.9" r="12.5"/>
  <rect class="cls-1" x="995" y="765.1" width="27.8" height="7.7"/>
  <g>
    <rect class="cls-3" x="725.5" y="440.6" width="212.5" height="573.5"/>
    <rect class="cls-3" x="976.7" y="440.6" width="212.5" height="573.5"/>
  </g>
  <rect class="cls-1" x="651.4" y="1072.8" width="12.6" height="78.7"/>
  <rect class="cls-1" x="1258.8" y="1072.8" width="12.6" height="78.7"/>
  <rect class="cls-2" x="888.3" y="1197.4" width="131.1" height="30.9"/>
  <rect class="cls-2" x="1284.6" y="311.7" width="59.9" height="28.6" transform="translate(988.5 1640.6) rotate(-90)"/>
  <rect class="cls-2" x="570.2" y="311.7" width="59.9" height="28.6" transform="translate(274 926.2) rotate(-90)"/>
</svg>