<?xml version="1.0" encoding="UTF-8"?>
<svg id="Capa_1" data-name="Capa 1" xmlns="http://www.w3.org/2000/svg" version="1.1" viewBox="0 0 512 512">
  <defs>
    <style>
      .cls-1 {
        fill: #000;
      }

      .cls-1, .cls-2, .cls-3, .cls-4, .cls-5 {
        stroke-width: 0px;
      }

      .cls-2 {
        fill: #2d2b2d;
      }

      .cls-3 {
        fill: #141414;
      }

      .cls-4 {
        fill: #333;
      }

      .cls-5 {
        fill: #fff;
      }

      .cls-6 {
        fill: none;
        stroke: #fff;
        stroke-miterlimit: 10;
        stroke-width: .8px;
      }
    </style>
  </defs>
  <path class="cls-3" d="M456.6,251.3c-25.4,0-49.4-11.4-65.4-31.1l-7-8.6c-22.7-27.9-56.8-44.1-92.7-44.1h-70.8c-36,0-70,16.2-92.7,44.1l-7,8.6c-16,19.7-40.1,31.1-65.4,31.1H21.4c-11.8,0-21.4,9.6-21.4,21.4v86.1c0,5.9,4.8,10.7,10.7,10.7h490.6c5.9,0,10.7-4.8,10.7-10.7v-86.1c0-11.8-9.6-21.4-21.4-21.4h-34Z"/>
  <path class="cls-1" d="M490.6,251.3h-34c-25.4,0-49.4-11.4-65.4-31.1l-7-8.6c-22.7-27.9-56.8-44.1-92.7-44.1h-70.8c-36,0-70,16.2-92.7,44.1l-7,8.6c-16,19.7-40.1,31.1-65.4,31.1H21.4C9.6,251.3,0,260.9,0,272.7v22.9C0,283.8,9.6,274.2,21.4,274.2h34c25.4,0,49.4-11.4,65.4-31.1l7-8.6c22.7-27.9,56.8-44.1,92.7-44.1h70.8c36,0,70,16.2,92.7,44.1l7,8.6c16,19.7,40.1,31.1,65.4,31.1h34c11.8,0,21.4,9.6,21.4,21.4v-22.9c0-11.8-9.6-21.4-21.4-21.4Z"/>
  <g>
    <path class="cls-5" d="M225.1,269.1l20.3,84.5h21.2l20.3-84.5h-61.7Z"/>
    <path class="cls-5" d="M356.8,247.7l-7.2-25.1-6.5,6.3c-5.2,5-12.9,6.7-19.7,4.3-10.6-3.7-22.4-6.6-35-8.4-1.1-.2-2.3-.3-3.4-.5-9.2-1.2-18.6,10.6-28.6,10.6s-19.7-11.8-28.9-10.7c-1.2.2-2.4.3-3.6.5-12.6,1.8-24.4,4.7-35,8.4-6.9,2.4-14.5.7-19.7-4.3l-6.5-6.3-7.2,25.1v21.9l75.4,10.3h50.8l75.4-10.3v-21.9h0Z"/>
    <path class="cls-1" d="M299.4,250.2l-2.6,17.7c-.5,3.8-1.9,7.3-3.8,10.5-4.9,7.9-13.6,13.1-23.4,13.1h-27.3c-9.8,0-18.5-5.2-23.4-13.1-1.9-3.1-3.2-6.6-3.8-10.5l-2.6-17.7c-1.1-7.8,1.3-15.1,5.9-20.6,2.6-3,6.2-4.9,10.1-5.4,8.8-1.1,17.9-1.6,27.3-1.6s18.5.6,27.3,1.6c3.9.5,7.6,2.3,10.1,5.4,4.6,5.5,7,12.8,5.9,20.6h0Z"/>
    <path class="cls-4" d="M256,134.8c-66.9,0-121.2,54.2-121.2,121.2s54.2,121.2,121.2,121.2,121.2-54.2,121.2-121.2-54.2-121.2-121.2-121.2h0ZM256,339.4c-46.1,0-83.4-37.3-83.4-83.4s37.3-83.4,83.4-83.4,83.4,37.3,83.4,83.4-37.3,83.4-83.4,83.4Z"/>
    <path class="cls-2" d="M342.9,171.6c12.2,18.9,19.3,41.5,19.3,65.7,0,66.9-54.2,121.2-121.2,121.2s-64.9-14.1-86.9-36.7c21.6,33.4,59.1,55.5,101.8,55.5,66.9,0,121.2-54.2,121.2-121.2s-13.1-62.6-34.3-84.4Z"/>
  </g>
  <path class="cls-5" d="M449.9,345.5c-4.3,0-7.8-3.6-7.8-8v-20.5c0-4.4,3.5-8,7.8-8s7.8,3.6,7.8,8v20.5c0,4.4-3.5,8-7.8,8Z"/>
  <circle class="cls-5" cx="63.8" cy="311.5" r="21.2" transform="translate(-248.4 251.1) rotate(-67.5)"/>
  <path class="cls-6" d="M459,317.4h-18.7c-8.5,0-15.3-6.9-15.3-15.3v-1.3c0-8.5,6.9-15.3,15.3-15.3h18.7c8.5,0,15.3,6.9,15.3,15.3v1.3c0,8.5-6.9,15.3-15.3,15.3Z"/>
</svg>